<svg width="230" height="26" viewBox="0 0 230 26" fill="none" xmlns="http://www.w3.org/2000/svg">
<path d="M3.46224 22.41H12.0022V25H0.277237V0.604999H3.46224V22.41ZM29.8047 19.575H19.1647L17.2047 25H13.8447L22.6647 0.744999H26.3397L35.1247 25H31.7647L29.8047 19.575ZM28.8947 16.985L24.4847 4.665L20.0747 16.985H28.8947ZM56.0347 25.245C54.4247 25.245 52.978 24.965 51.6947 24.405C50.4347 23.8217 49.443 23.0283 48.7197 22.025C47.9964 20.9983 47.623 19.82 47.5997 18.49H50.9947C51.1114 19.6333 51.578 20.6017 52.3947 21.395C53.2347 22.165 54.448 22.55 56.0347 22.55C57.5514 22.55 58.7414 22.1767 59.6047 21.43C60.4914 20.66 60.9347 19.68 60.9347 18.49C60.9347 17.5567 60.678 16.7983 60.1647 16.215C59.6514 15.6317 59.0097 15.1883 58.2397 14.885C57.4697 14.5817 56.4314 14.255 55.1247 13.905C53.5147 13.485 52.2197 13.065 51.2397 12.645C50.283 12.225 49.4547 11.5717 48.7547 10.685C48.078 9.775 47.7397 8.56167 47.7397 7.045C47.7397 5.715 48.078 4.53667 48.7547 3.51C49.4314 2.48333 50.3764 1.69 51.5897 1.13C52.8264 0.569999 54.238 0.289999 55.8247 0.289999C58.1114 0.289999 59.978 0.861666 61.4247 2.005C62.8947 3.14833 63.723 4.665 63.9097 6.555H60.4097C60.293 5.62167 59.803 4.805 58.9397 4.105C58.0764 3.38167 56.933 3.02 55.5097 3.02C54.1797 3.02 53.0947 3.37 52.2547 4.07C51.4147 4.74667 50.9947 5.70333 50.9947 6.94C50.9947 7.82667 51.2397 8.55 51.7297 9.11C52.243 9.67 52.8614 10.1017 53.5847 10.405C54.3314 10.685 55.3697 11.0117 56.6997 11.385C58.3097 11.8283 59.6047 12.2717 60.5847 12.715C61.5647 13.135 62.4047 13.8 63.1047 14.71C63.8047 15.5967 64.1547 16.81 64.1547 18.35C64.1547 19.54 63.8397 20.66 63.2097 21.71C62.5797 22.76 61.6464 23.6117 60.4097 24.265C59.173 24.9183 57.7147 25.245 56.0347 25.245ZM72.0267 3.195V11.35H80.9167V13.975H72.0267V22.375H81.9667V25H68.8417V0.57H81.9667V3.195H72.0267ZM101.206 19.575H90.566L88.606 25H85.246L94.066 0.744999H97.741L106.526 25H103.166L101.206 19.575ZM100.296 16.985L95.886 4.665L91.476 16.985H100.296ZM130.53 0.604999L121.325 25H117.65L108.445 0.604999H111.84L119.505 21.64L127.17 0.604999H130.53ZM151.102 0.604999L143.157 15.795V25H139.972V15.795L131.992 0.604999H135.527L141.547 12.96L147.567 0.604999H151.102ZM165.522 25.245C163.258 25.245 161.193 24.72 159.327 23.67C157.46 22.5967 155.978 21.115 154.882 19.225C153.808 17.3117 153.272 15.165 153.272 12.785C153.272 10.405 153.808 8.27 154.882 6.38C155.978 4.46667 157.46 2.985 159.327 1.935C161.193 0.861665 163.258 0.324998 165.522 0.324998C167.808 0.324998 169.885 0.861665 171.752 1.935C173.618 2.985 175.088 4.455 176.162 6.345C177.235 8.235 177.772 10.3817 177.772 12.785C177.772 15.1883 177.235 17.335 176.162 19.225C175.088 21.115 173.618 22.5967 171.752 23.67C169.885 24.72 167.808 25.245 165.522 25.245ZM165.522 22.48C167.225 22.48 168.753 22.0833 170.107 21.29C171.483 20.4967 172.557 19.365 173.327 17.895C174.12 16.425 174.517 14.7217 174.517 12.785C174.517 10.825 174.12 9.12167 173.327 7.675C172.557 6.205 171.495 5.07333 170.142 4.28C168.788 3.48667 167.248 3.09 165.522 3.09C163.795 3.09 162.255 3.48667 160.902 4.28C159.548 5.07333 158.475 6.205 157.682 7.675C156.912 9.12167 156.527 10.825 156.527 12.785C156.527 14.7217 156.912 16.425 157.682 17.895C158.475 19.365 159.548 20.4967 160.902 21.29C162.278 22.0833 163.818 22.48 165.522 22.48ZM201.156 25H197.971L185.161 5.575V25H181.976V0.57H185.161L197.971 19.96V0.57H201.156V25ZM225.066 7.675C224.389 6.25167 223.409 5.155 222.126 4.385C220.843 3.59167 219.349 3.195 217.646 3.195C215.943 3.195 214.403 3.59167 213.026 4.385C211.673 5.155 210.599 6.275 209.806 7.745C209.036 9.19167 208.651 10.8717 208.651 12.785C208.651 14.6983 209.036 16.3783 209.806 17.825C210.599 19.2717 211.673 20.3917 213.026 21.185C214.403 21.955 215.943 22.34 217.646 22.34C220.026 22.34 221.986 21.6283 223.526 20.205C225.066 18.7817 225.964 16.8567 226.221 14.43H216.491V11.84H229.616V14.29C229.429 16.2967 228.799 18.14 227.726 19.82C226.653 21.4767 225.241 22.795 223.491 23.775C221.741 24.7317 219.793 25.21 217.646 25.21C215.383 25.21 213.318 24.685 211.451 23.635C209.584 22.5617 208.103 21.08 207.006 19.19C205.933 17.3 205.396 15.165 205.396 12.785C205.396 10.405 205.933 8.27 207.006 6.38C208.103 4.46667 209.584 2.985 211.451 1.935C213.318 0.861665 215.383 0.324998 217.646 0.324998C220.236 0.324998 222.523 0.966665 224.506 2.25C226.513 3.53333 227.971 5.34167 228.881 7.675H225.066Z" fill="black"/>
</svg>
