<svg width="45" height="43" viewBox="0 0 45 43" fill="none" xmlns="http://www.w3.org/2000/svg">
<path d="M3.84 42.64C2.82 42.64 1.99 42.37 1.35 41.83C0.71 41.29 0.39 40.56 0.39 39.64C0.39 38.7 0.77 37.66 1.53 36.52C2.15 35.62 3.06 34.66 4.26 33.64C5.46 32.64 6.92 31.71 8.64 30.85C10.36 29.97 12.29 29.3 14.43 28.84C14.45 28.64 14.46 28.44 14.46 28.24C14.46 28.04 14.46 27.84 14.46 27.64C14.46 25.92 14.31 24.17 14.01 22.39C13.71 20.61 13.33 18.87 12.87 17.17C12.49 19.11 11.98 20.94 11.34 22.66C10.7 24.38 10.01 25.9 9.27 27.22C8.53 28.52 7.78 29.54 7.02 30.28C6.28 31.02 5.59 31.39 4.95 31.39C4.41 31.39 3.94 31.09 3.54 30.49C3.16 29.89 2.89 28.92 2.73 27.58C2.71 27.48 2.7 27.36 2.7 27.22C2.7 27.06 2.7 26.9 2.7 26.74C2.7 26.08 2.74 25.25 2.82 24.25C2.9 23.23 3 22.11 3.12 20.89C3.24 19.67 3.35 18.41 3.45 17.11C3.57 15.81 3.67 14.55 3.75 13.33C3.83 12.09 3.87 10.95 3.87 9.91C3.87 8.67 3.79 7.66 3.63 6.88C3.47 6.08 3.18 5.68 2.76 5.68C2.48 5.68 2.22 5.83 1.98 6.13C1.74 6.41 1.53 6.73 1.35 7.09C1.15 7.43 1 7.71 0.9 7.93C0.78 8.15 0.71 8.19 0.69 8.05C0.67 7.97 0.66 7.9 0.66 7.84C0.64 7.76 0.63 7.68 0.63 7.6C0.63 7.22 0.72 6.82 0.9 6.4C1.08 5.98 1.32 5.62 1.62 5.32C1.92 5.02 2.26 4.87 2.64 4.87C2.78 4.87 2.94 4.9 3.12 4.96C3.94 5.28 4.5 5.99 4.8 7.09C5.12 8.19 5.28 9.5 5.28 11.02C5.28 12.18 5.22 13.41 5.1 14.71C4.98 16.01 4.84 17.31 4.68 18.61C4.52 19.91 4.38 21.14 4.26 22.3C4.14 23.46 4.08 24.49 4.08 25.39C4.08 25.61 4.08 25.83 4.08 26.05C4.1 26.25 4.12 26.44 4.14 26.62C4.3 27.88 4.52 28.77 4.8 29.29C5.08 29.81 5.4 30.07 5.76 30.07C6.16 30.07 6.57 29.85 6.99 29.41C7.43 28.97 7.86 28.42 8.28 27.76C8.7 27.1 9.08 26.44 9.42 25.78C9.84 25 10.24 24.03 10.62 22.87C11 21.69 11.35 20.48 11.67 19.24C12.01 17.98 12.28 16.84 12.48 15.82L12.21 14.95C12.17 14.65 12.24 14.43 12.42 14.29C12.6 14.13 12.79 14.05 12.99 14.05C13.39 14.05 13.65 14.21 13.77 14.53C14.07 15.25 14.33 16.22 14.55 17.44C14.79 18.66 14.97 19.99 15.09 21.43C15.21 22.85 15.27 24.25 15.27 25.63C15.27 26.15 15.26 26.67 15.24 27.19C15.22 27.69 15.19 28.17 15.15 28.63C15.79 28.53 16.44 28.44 17.1 28.36C17.78 28.26 18.48 28.21 19.2 28.21H19.35C19.59 28.21 19.71 28.25 19.71 28.33C19.71 28.39 19.64 28.46 19.5 28.54C19.36 28.6 19.16 28.64 18.9 28.66C18.28 28.7 17.64 28.77 16.98 28.87C16.34 28.95 15.7 29.07 15.06 29.23C14.7 31.25 14.19 33.01 13.53 34.51C12.87 36.01 12.13 37.27 11.31 38.29C10.49 39.31 9.66 40.13 8.82 40.75C7.92 41.41 7.04 41.89 6.18 42.19C5.32 42.49 4.54 42.64 3.84 42.64ZM3.51 42.19C3.93 42.19 4.41 42.11 4.95 41.95C5.49 41.79 6.07 41.52 6.69 41.14C8.09 40.32 9.33 39.3 10.41 38.08C11.49 36.88 12.37 35.54 13.05 34.06C13.73 32.6 14.17 31.07 14.37 29.47C12.97 29.83 11.53 30.37 10.05 31.09C8.59 31.81 7.22 32.65 5.94 33.61C4.66 34.57 3.59 35.62 2.73 36.76C2.27 37.36 1.93 37.94 1.71 38.5C1.49 39.08 1.38 39.61 1.38 40.09C1.38 40.71 1.57 41.21 1.95 41.59C2.31 41.99 2.83 42.19 3.51 42.19Z" fill="black"/>
<path d="M20.21 26.57C19.67 26.57 19.18 26.38 18.74 26C18.42 25.72 18.19 25.39 18.05 25.01C17.91 24.63 17.84 24.22 17.84 23.78C17.84 23.44 17.87 23.1 17.93 22.76C18.01 22.4 18.1 22.06 18.2 21.74C18.34 21.3 18.52 20.9 18.74 20.54C18.96 20.18 19.15 19.9 19.31 19.7C19.41 19.24 19.6 18.7 19.88 18.08C20.16 17.46 20.5 16.86 20.9 16.28C21.32 15.7 21.79 15.22 22.31 14.84C22.83 14.44 23.37 14.24 23.93 14.24C24.59 14.24 25.16 14.54 25.64 15.14C26.14 15.72 26.43 16.58 26.51 17.72C26.51 17.8 26.51 17.88 26.51 17.96C26.53 18.04 26.54 18.13 26.54 18.23C26.54 19.37 26.26 20.51 25.7 21.65C25.16 22.77 24.51 23.73 23.75 24.53C23.31 25.01 22.77 25.47 22.13 25.91C21.49 26.35 20.85 26.57 20.21 26.57ZM20.36 25.94C20.9 25.94 21.48 25.69 22.1 25.19C22.8 24.63 23.4 23.92 23.9 23.06C24.4 22.2 24.79 21.29 25.07 20.33C25.37 19.35 25.55 18.4 25.61 17.48C25.65 16.96 25.58 16.46 25.4 15.98C25.22 15.5 24.84 15.19 24.26 15.05C24.1 15.01 23.97 14.99 23.87 14.99C23.49 14.99 23.1 15.11 22.7 15.35C22.32 15.59 21.97 15.89 21.65 16.25C21.35 16.61 21.11 16.97 20.93 17.33C20.77 17.67 20.7 17.95 20.72 18.17C20.84 18.05 21.04 17.88 21.32 17.66C21.62 17.42 21.95 17.2 22.31 17C22.67 16.8 22.98 16.7 23.24 16.7C23.44 16.7 23.58 16.76 23.66 16.88C23.72 16.92 23.73 17 23.69 17.12C23.43 17.04 23.13 17.09 22.79 17.27C22.47 17.45 22.14 17.7 21.8 18.02C21.48 18.34 21.19 18.66 20.93 18.98C20.67 19.3 20.48 19.55 20.36 19.73C20.28 19.81 20.19 19.91 20.09 20.03C20.01 20.15 19.96 20.28 19.94 20.42C19.92 20.46 19.91 20.55 19.91 20.69C19.91 20.95 19.99 21.27 20.15 21.65C20.33 22.03 20.65 22.37 21.11 22.67C21.57 22.97 22.21 23.14 23.03 23.18C23.05 23.2 23.06 23.22 23.06 23.24C23.06 23.32 22.98 23.38 22.82 23.42C22.68 23.44 22.59 23.45 22.55 23.45C22.49 23.47 22.43 23.48 22.37 23.48C22.31 23.48 22.25 23.48 22.19 23.48C21.51 23.48 20.95 23.23 20.51 22.73C20.07 22.21 19.74 21.64 19.52 21.02C19.02 22.1 18.77 23.05 18.77 23.87C18.77 24.53 18.92 25.04 19.22 25.4C19.52 25.76 19.9 25.94 20.36 25.94ZM33.7787 26.39C33.5187 26.39 33.2887 26.23 33.0887 25.91C32.8887 25.57 32.7887 24.93 32.7887 23.99C32.7887 23.25 32.8487 22.44 32.9687 21.56C33.0887 20.66 33.2187 19.77 33.3587 18.89C33.5187 18.01 33.6587 17.23 33.7787 16.55C33.8987 15.85 33.9587 15.34 33.9587 15.02C33.9587 14.46 33.7887 14.18 33.4487 14.18C33.1287 14.18 32.7987 14.34 32.4587 14.66C32.1387 14.98 31.8287 15.37 31.5287 15.83C31.2487 16.29 30.9987 16.74 30.7787 17.18C30.5787 17.6 30.4487 17.91 30.3887 18.11C30.1087 18.89 29.9087 19.67 29.7887 20.45C29.6687 21.21 29.6087 22 29.6087 22.82C29.6087 23.16 29.6187 23.51 29.6387 23.87C29.6787 24.23 29.7087 24.6 29.7287 24.98C29.7687 25.18 29.7087 25.43 29.5487 25.73C29.4087 26.01 29.2387 26.15 29.0387 26.15C28.8987 26.15 28.7787 26.06 28.6787 25.88C28.5787 25.7 28.5087 25.54 28.4687 25.4C28.3887 25.16 28.3287 24.91 28.2887 24.65C28.2487 24.37 28.2087 24.13 28.1687 23.93C28.0287 23.11 27.8987 22.28 27.7787 21.44C27.6587 20.58 27.4887 19.75 27.2687 18.95C27.2087 18.73 27.1287 18.5 27.0287 18.26C26.9487 18 26.8187 17.79 26.6387 17.63C26.5987 17.59 26.5387 17.55 26.4587 17.51C26.3787 17.45 26.3387 17.4 26.3387 17.36C26.3387 17.28 26.4487 17.24 26.6687 17.24C26.9087 17.24 27.1487 17.36 27.3887 17.6C27.6287 17.84 27.8487 18.16 28.0487 18.56C28.2887 19.06 28.4887 19.59 28.6487 20.15C28.8287 20.71 28.9687 21.16 29.0687 21.5C29.1887 20.78 29.3187 20.14 29.4587 19.58C29.5987 19.1 29.7887 18.53 30.0287 17.87C30.2687 17.19 30.5687 16.53 30.9287 15.89C31.2887 15.23 31.7187 14.69 32.2187 14.27C32.7187 13.83 33.2987 13.61 33.9587 13.61C34.9187 13.61 35.3987 14.17 35.3987 15.29C35.3987 15.87 35.2987 16.51 35.0987 17.21C34.8987 17.89 34.6787 18.52 34.4387 19.1C34.2187 19.68 34.0687 20.08 33.9887 20.3C33.8887 20.58 33.7787 20.96 33.6587 21.44C33.5587 21.92 33.4687 22.42 33.3887 22.94C33.3287 23.46 33.2987 23.94 33.2987 24.38C33.2987 24.76 33.3387 25.08 33.4187 25.34C33.5187 25.58 33.6687 25.7 33.8687 25.7C34.0687 25.7 34.2487 25.61 34.4087 25.43C34.5687 25.23 34.6987 25.05 34.7987 24.89C34.9187 24.73 34.9787 24.7 34.9787 24.8C35.0187 25.1 34.9087 25.44 34.6487 25.82C34.4087 26.2 34.1187 26.39 33.7787 26.39ZM36.1827 37.91C35.3827 37.91 34.7027 37.67 34.1427 37.19C33.5627 36.73 33.2727 36.11 33.2727 35.33C33.2727 34.55 33.6427 33.64 34.3827 32.6C35.1227 31.56 36.3727 30.48 38.1327 29.36C38.5327 29.08 38.9527 28.83 39.3927 28.61C39.8527 28.39 40.3227 28.16 40.8027 27.92C40.9227 27.86 41.0127 27.83 41.0727 27.83C41.1527 27.83 41.1927 27.86 41.1927 27.92C41.1927 28.06 41.0527 28.21 40.7727 28.37C39.8127 28.85 38.9927 29.35 38.3127 29.87C37.6527 30.41 37.0427 31.04 36.4827 31.76C36.1827 32.14 35.8627 32.58 35.5227 33.08C35.2027 33.6 34.9327 34.11 34.7127 34.61C34.4727 35.11 34.3527 35.56 34.3527 35.96C34.3527 36.8 34.7527 37.22 35.5527 37.22C35.8927 37.22 36.2927 37.12 36.7527 36.92C37.2127 36.74 37.7127 36.44 38.2527 36.02C39.6127 34.96 40.5727 33.78 41.1327 32.48C41.6927 31.2 41.9727 29.7 41.9727 27.98C41.9727 26.7 41.8527 25.28 41.6127 23.72C41.3927 22.12 41.2727 20.59 41.2527 19.13C41.1527 19.75 40.9827 20.5 40.7427 21.38C40.5227 22.24 40.2527 23.06 39.9327 23.84C39.6127 24.62 39.2527 25.29 38.8527 25.85C38.4727 26.41 37.9827 26.69 37.3827 26.69C36.9627 26.69 36.6027 26.48 36.3027 26.06C36.0227 25.64 35.8827 25 35.8827 24.14C35.8827 23.5 35.9927 22.74 36.2127 21.86C36.4327 20.98 36.7327 20.13 37.1127 19.31C37.4927 18.47 37.9127 17.78 38.3727 17.24C38.8527 16.68 39.3327 16.4 39.8127 16.4C40.1527 16.4 40.3927 16.54 40.5327 16.82C40.6927 17.08 40.7727 17.35 40.7727 17.63C40.7727 17.85 40.7327 18.04 40.6527 18.2C40.5727 18.36 40.4527 18.44 40.2927 18.44C40.1327 18.42 40.0127 18.35 39.9327 18.23C39.8727 18.09 39.8127 17.96 39.7527 17.84C39.6927 17.7 39.5827 17.63 39.4227 17.63C39.1027 17.63 38.7927 17.84 38.4927 18.26C38.2127 18.66 37.9527 19.19 37.7127 19.85C37.4927 20.49 37.3127 21.17 37.1727 21.89C37.0527 22.61 36.9927 23.27 36.9927 23.87C36.9927 24.43 37.0527 24.89 37.1727 25.25C37.3127 25.61 37.5227 25.8 37.8027 25.82C38.1427 25.84 38.4727 25.62 38.7927 25.16C39.1127 24.7 39.4027 24.11 39.6627 23.39C39.9427 22.67 40.1827 21.91 40.3827 21.11C40.6027 20.29 40.7827 19.53 40.9227 18.83C41.0827 18.11 41.1927 17.55 41.2527 17.15C41.4127 16.09 41.5627 15.42 41.7027 15.14C41.8427 14.84 41.9927 14.69 42.1527 14.69C42.2927 14.69 42.4127 14.82 42.5127 15.08C42.6327 15.34 42.6927 15.58 42.6927 15.8C42.6927 15.96 42.6827 16.07 42.6627 16.13C42.4227 17.45 42.3027 18.8 42.3027 20.18C42.3027 20.76 42.3227 21.34 42.3627 21.92C42.4027 22.48 42.4527 23.04 42.5127 23.6C42.6327 24.76 42.6927 25.84 42.6927 26.84C42.6927 28.88 42.4827 30.6 42.0627 32C41.6627 33.42 41.1327 34.56 40.4727 35.42C39.8127 36.3 39.1027 36.93 38.3427 37.31C37.6027 37.71 36.8827 37.91 36.1827 37.91Z" fill="black"/>
<path d="M5.96493 6.40817C5.93223 6.37157 5.88122 6.34988 5.82709 6.3496C5.70242 6.35073 5.57742 6.37318 5.46536 6.41845L5.46179 6.36837C5.45844 6.32168 5.42908 6.27915 5.38243 6.25378C5.336 6.22822 5.27785 6.22312 5.22629 6.23982C5.14816 6.26491 5.07171 6.29358 4.99749 6.32564C4.99715 6.32413 4.99693 6.32263 4.9966 6.32112C4.98231 6.24916 4.93889 6.03016 4.72594 6.00262C4.49423 5.97291 4.30851 6.197 4.05136 6.62254C4.04277 6.61698 4.03451 6.61151 4.02703 6.60651C3.90459 6.52587 3.75046 6.42543 3.57155 6.43825C3.45938 6.44608 3.32511 6.47806 3.21272 6.56954C3.0722 6.489 2.88759 6.4807 2.75455 6.55077C2.64171 6.61019 2.5743 6.70233 2.54383 6.80334C2.48803 6.79457 2.43021 6.79438 2.3734 6.8041C2.16402 6.83956 2.00352 7.00244 2.00006 7.18286C1.99694 7.35018 2.11346 7.50476 2.34661 7.64227C2.74596 7.87758 3.23091 8.00009 3.71575 8C3.98495 8 4.25394 7.96227 4.5083 7.88513C5.22071 7.66905 5.78992 7.15221 5.99361 6.53615C6.00812 6.49211 5.99763 6.44476 5.96493 6.40817Z" fill="#A899DD"/>
<path d="M6.20269 6.46976C6.16965 6.4225 6.11455 6.39152 6.0538 6.38612C5.9932 6.38187 5.92812 6.38139 5.86204 6.38827C5.81864 6.39269 5.7783 6.41033 5.74771 6.43829C4.62656 7.45783 3.28261 7.5446 2.35129 7.4379C2.26132 7.42719 2.17647 7.47462 2.14558 7.55155C2.11481 7.6286 2.14631 7.71555 2.22182 7.7621C2.60882 8.00071 3.06069 8.14378 3.51903 8.18195C3.82159 8.20714 4.12681 8.18667 4.41826 8.11779C5.23999 7.9234 5.93118 7.35229 6.22189 6.62715C6.24275 6.5752 6.23573 6.51702 6.20269 6.46976Z" fill="#987AFF"/>
<path d="M44.9618 15.2561C44.8648 15.1468 44.6345 15.107 44.4097 15.1117C44.4742 15.0718 44.5358 15.0307 44.5939 14.9884C44.6381 14.9562 44.7724 14.8583 44.6731 14.7549C44.5926 14.6713 44.4051 14.6315 44.1571 14.6453C43.7283 14.6694 43.3245 14.7627 43.0093 14.9037L43.0129 14.2676C43.0134 14.1932 42.9609 14.0872 42.8112 14.0332C42.721 14.0006 42.6117 13.9917 42.5048 14.0078C42.3275 14.0345 42.261 14.1165 42.2324 14.1515L42.0848 14.3333L41.8358 14.1395C41.6714 14.0114 41.4911 13.9984 41.3699 14.0099C41.2611 14.0202 41.0737 14.0628 41.041 14.2323C40.9593 14.6599 40.9299 15.4341 41.6505 15.8155C41.9047 15.9501 42.228 16 42.5694 16C43.3476 16 44.2195 15.7407 44.5797 15.6335C44.9298 15.5294 45.0761 15.3847 44.9618 15.2561Z" fill="#A899DD"/>
<path d="M44.96 15.1629C44.8301 15.0057 44.4708 14.9765 44.1918 15.0156C44.1642 15.0194 44.1369 15.0238 44.1006 15.0299C43.0022 15.2389 42.0612 15.2836 41.3041 15.1625C41.2218 15.1493 41.1311 15.1609 41.0695 15.193C41.0079 15.2251 40.9851 15.2723 41.0098 15.3158C41.1235 15.5149 41.2855 15.6753 41.4914 15.7923C41.7577 15.9438 42.0964 16 42.454 16C43.2692 16 44.1826 15.7081 44.56 15.5876C44.9264 15.4705 45.0797 15.3077 44.96 15.1629Z" fill="#8B77D1"/>
</svg>
