<svg width="65" height="65" viewBox="0 0 65 65" fill="none" xmlns="http://www.w3.org/2000/svg">
<rect width="65" height="65" rx="5" fill="white"/>
<path d="M12.84 53.64C11.82 53.64 10.99 53.37 10.35 52.83C9.71 52.29 9.39 51.56 9.39 50.64C9.39 49.7 9.77 48.66 10.53 47.52C11.15 46.62 12.06 45.66 13.26 44.64C14.46 43.64 15.92 42.71 17.64 41.85C19.36 40.97 21.29 40.3 23.43 39.84C23.45 39.64 23.46 39.44 23.46 39.24C23.46 39.04 23.46 38.84 23.46 38.64C23.46 36.92 23.31 35.17 23.01 33.39C22.71 31.61 22.33 29.87 21.87 28.17C21.49 30.11 20.98 31.94 20.34 33.66C19.7 35.38 19.01 36.9 18.27 38.22C17.53 39.52 16.78 40.54 16.02 41.28C15.28 42.02 14.59 42.39 13.95 42.39C13.41 42.39 12.94 42.09 12.54 41.49C12.16 40.89 11.89 39.92 11.73 38.58C11.71 38.48 11.7 38.36 11.7 38.22C11.7 38.06 11.7 37.9 11.7 37.74C11.7 37.08 11.74 36.25 11.82 35.25C11.9 34.23 12 33.11 12.12 31.89C12.24 30.67 12.35 29.41 12.45 28.11C12.57 26.81 12.67 25.55 12.75 24.33C12.83 23.09 12.87 21.95 12.87 20.91C12.87 19.67 12.79 18.66 12.63 17.88C12.47 17.08 12.18 16.68 11.76 16.68C11.48 16.68 11.22 16.83 10.98 17.13C10.74 17.41 10.53 17.73 10.35 18.09C10.15 18.43 10 18.71 9.9 18.93C9.78 19.15 9.71 19.19 9.69 19.05C9.67 18.97 9.66 18.9 9.66 18.84C9.64 18.76 9.63 18.68 9.63 18.6C9.63 18.22 9.72 17.82 9.9 17.4C10.08 16.98 10.32 16.62 10.62 16.32C10.92 16.02 11.26 15.87 11.64 15.87C11.78 15.87 11.94 15.9 12.12 15.96C12.94 16.28 13.5 16.99 13.8 18.09C14.12 19.19 14.28 20.5 14.28 22.02C14.28 23.18 14.22 24.41 14.1 25.71C13.98 27.01 13.84 28.31 13.68 29.61C13.52 30.91 13.38 32.14 13.26 33.3C13.14 34.46 13.08 35.49 13.08 36.39C13.08 36.61 13.08 36.83 13.08 37.05C13.1 37.25 13.12 37.44 13.14 37.62C13.3 38.88 13.52 39.77 13.8 40.29C14.08 40.81 14.4 41.07 14.76 41.07C15.16 41.07 15.57 40.85 15.99 40.41C16.43 39.97 16.86 39.42 17.28 38.76C17.7 38.1 18.08 37.44 18.42 36.78C18.84 36 19.24 35.03 19.62 33.87C20 32.69 20.35 31.48 20.67 30.24C21.01 28.98 21.28 27.84 21.48 26.82L21.21 25.95C21.17 25.65 21.24 25.43 21.42 25.29C21.6 25.13 21.79 25.05 21.99 25.05C22.39 25.05 22.65 25.21 22.77 25.53C23.07 26.25 23.33 27.22 23.55 28.44C23.79 29.66 23.97 30.99 24.09 32.43C24.21 33.85 24.27 35.25 24.27 36.63C24.27 37.15 24.26 37.67 24.24 38.19C24.22 38.69 24.19 39.17 24.15 39.63C24.79 39.53 25.44 39.44 26.1 39.36C26.78 39.26 27.48 39.21 28.2 39.21H28.35C28.59 39.21 28.71 39.25 28.71 39.33C28.71 39.39 28.64 39.46 28.5 39.54C28.36 39.6 28.16 39.64 27.9 39.66C27.28 39.7 26.64 39.77 25.98 39.87C25.34 39.95 24.7 40.07 24.06 40.23C23.7 42.25 23.19 44.01 22.53 45.51C21.87 47.01 21.13 48.27 20.31 49.29C19.49 50.31 18.66 51.13 17.82 51.75C16.92 52.41 16.04 52.89 15.18 53.19C14.32 53.49 13.54 53.64 12.84 53.64ZM12.51 53.19C12.93 53.19 13.41 53.11 13.95 52.95C14.49 52.79 15.07 52.52 15.69 52.14C17.09 51.32 18.33 50.3 19.41 49.08C20.49 47.88 21.37 46.54 22.05 45.06C22.73 43.6 23.17 42.07 23.37 40.47C21.97 40.83 20.53 41.37 19.05 42.09C17.59 42.81 16.22 43.65 14.94 44.61C13.66 45.57 12.59 46.62 11.73 47.76C11.27 48.36 10.93 48.94 10.71 49.5C10.49 50.08 10.38 50.61 10.38 51.09C10.38 51.71 10.57 52.21 10.95 52.59C11.31 52.99 11.83 53.19 12.51 53.19Z" fill="black"/>
<path d="M29.21 37.57C28.67 37.57 28.18 37.38 27.74 37C27.42 36.72 27.19 36.39 27.05 36.01C26.91 35.63 26.84 35.22 26.84 34.78C26.84 34.44 26.87 34.1 26.93 33.76C27.01 33.4 27.1 33.06 27.2 32.74C27.34 32.3 27.52 31.9 27.74 31.54C27.96 31.18 28.15 30.9 28.31 30.7C28.41 30.24 28.6 29.7 28.88 29.08C29.16 28.46 29.5 27.86 29.9 27.28C30.32 26.7 30.79 26.22 31.31 25.84C31.83 25.44 32.37 25.24 32.93 25.24C33.59 25.24 34.16 25.54 34.64 26.14C35.14 26.72 35.43 27.58 35.51 28.72C35.51 28.8 35.51 28.88 35.51 28.96C35.53 29.04 35.54 29.13 35.54 29.23C35.54 30.37 35.26 31.51 34.7 32.65C34.16 33.77 33.51 34.73 32.75 35.53C32.31 36.01 31.77 36.47 31.13 36.91C30.49 37.35 29.85 37.57 29.21 37.57ZM29.36 36.94C29.9 36.94 30.48 36.69 31.1 36.19C31.8 35.63 32.4 34.92 32.9 34.06C33.4 33.2 33.79 32.29 34.07 31.33C34.37 30.35 34.55 29.4 34.61 28.48C34.65 27.96 34.58 27.46 34.4 26.98C34.22 26.5 33.84 26.19 33.26 26.05C33.1 26.01 32.97 25.99 32.87 25.99C32.49 25.99 32.1 26.11 31.7 26.35C31.32 26.59 30.97 26.89 30.65 27.25C30.35 27.61 30.11 27.97 29.93 28.33C29.77 28.67 29.7 28.95 29.72 29.17C29.84 29.05 30.04 28.88 30.32 28.66C30.62 28.42 30.95 28.2 31.31 28C31.67 27.8 31.98 27.7 32.24 27.7C32.44 27.7 32.58 27.76 32.66 27.88C32.72 27.92 32.73 28 32.69 28.12C32.43 28.04 32.13 28.09 31.79 28.27C31.47 28.45 31.14 28.7 30.8 29.02C30.48 29.34 30.19 29.66 29.93 29.98C29.67 30.3 29.48 30.55 29.36 30.73C29.28 30.81 29.19 30.91 29.09 31.03C29.01 31.15 28.96 31.28 28.94 31.42C28.92 31.46 28.91 31.55 28.91 31.69C28.91 31.95 28.99 32.27 29.15 32.65C29.33 33.03 29.65 33.37 30.11 33.67C30.57 33.97 31.21 34.14 32.03 34.18C32.05 34.2 32.06 34.22 32.06 34.24C32.06 34.32 31.98 34.38 31.82 34.42C31.68 34.44 31.59 34.45 31.55 34.45C31.49 34.47 31.43 34.48 31.37 34.48C31.31 34.48 31.25 34.48 31.19 34.48C30.51 34.48 29.95 34.23 29.51 33.73C29.07 33.21 28.74 32.64 28.52 32.02C28.02 33.1 27.77 34.05 27.77 34.87C27.77 35.53 27.92 36.04 28.22 36.4C28.52 36.76 28.9 36.94 29.36 36.94ZM42.7787 37.39C42.5187 37.39 42.2887 37.23 42.0887 36.91C41.8887 36.57 41.7887 35.93 41.7887 34.99C41.7887 34.25 41.8487 33.44 41.9687 32.56C42.0887 31.66 42.2187 30.77 42.3587 29.89C42.5187 29.01 42.6587 28.23 42.7787 27.55C42.8987 26.85 42.9587 26.34 42.9587 26.02C42.9587 25.46 42.7887 25.18 42.4487 25.18C42.1287 25.18 41.7987 25.34 41.4587 25.66C41.1387 25.98 40.8287 26.37 40.5287 26.83C40.2487 27.29 39.9987 27.74 39.7787 28.18C39.5787 28.6 39.4487 28.91 39.3887 29.11C39.1087 29.89 38.9087 30.67 38.7887 31.45C38.6687 32.21 38.6087 33 38.6087 33.82C38.6087 34.16 38.6187 34.51 38.6387 34.87C38.6787 35.23 38.7087 35.6 38.7287 35.98C38.7687 36.18 38.7087 36.43 38.5487 36.73C38.4087 37.01 38.2387 37.15 38.0387 37.15C37.8987 37.15 37.7787 37.06 37.6787 36.88C37.5787 36.7 37.5087 36.54 37.4687 36.4C37.3887 36.16 37.3287 35.91 37.2887 35.65C37.2487 35.37 37.2087 35.13 37.1687 34.93C37.0287 34.11 36.8987 33.28 36.7787 32.44C36.6587 31.58 36.4887 30.75 36.2687 29.95C36.2087 29.73 36.1287 29.5 36.0287 29.26C35.9487 29 35.8187 28.79 35.6387 28.63C35.5987 28.59 35.5387 28.55 35.4587 28.51C35.3787 28.45 35.3387 28.4 35.3387 28.36C35.3387 28.28 35.4487 28.24 35.6687 28.24C35.9087 28.24 36.1487 28.36 36.3887 28.6C36.6287 28.84 36.8487 29.16 37.0487 29.56C37.2887 30.06 37.4887 30.59 37.6487 31.15C37.8287 31.71 37.9687 32.16 38.0687 32.5C38.1887 31.78 38.3187 31.14 38.4587 30.58C38.5987 30.1 38.7887 29.53 39.0287 28.87C39.2687 28.19 39.5687 27.53 39.9287 26.89C40.2887 26.23 40.7187 25.69 41.2187 25.27C41.7187 24.83 42.2987 24.61 42.9587 24.61C43.9187 24.61 44.3987 25.17 44.3987 26.29C44.3987 26.87 44.2987 27.51 44.0987 28.21C43.8987 28.89 43.6787 29.52 43.4387 30.1C43.2187 30.68 43.0687 31.08 42.9887 31.3C42.8887 31.58 42.7787 31.96 42.6587 32.44C42.5587 32.92 42.4687 33.42 42.3887 33.94C42.3287 34.46 42.2987 34.94 42.2987 35.38C42.2987 35.76 42.3387 36.08 42.4187 36.34C42.5187 36.58 42.6687 36.7 42.8687 36.7C43.0687 36.7 43.2487 36.61 43.4087 36.43C43.5687 36.23 43.6987 36.05 43.7987 35.89C43.9187 35.73 43.9787 35.7 43.9787 35.8C44.0187 36.1 43.9087 36.44 43.6487 36.82C43.4087 37.2 43.1187 37.39 42.7787 37.39ZM45.1827 48.91C44.3827 48.91 43.7027 48.67 43.1427 48.19C42.5627 47.73 42.2727 47.11 42.2727 46.33C42.2727 45.55 42.6427 44.64 43.3827 43.6C44.1227 42.56 45.3727 41.48 47.1327 40.36C47.5327 40.08 47.9527 39.83 48.3927 39.61C48.8527 39.39 49.3227 39.16 49.8027 38.92C49.9227 38.86 50.0127 38.83 50.0727 38.83C50.1527 38.83 50.1927 38.86 50.1927 38.92C50.1927 39.06 50.0527 39.21 49.7727 39.37C48.8127 39.85 47.9927 40.35 47.3127 40.87C46.6527 41.41 46.0427 42.04 45.4827 42.76C45.1827 43.14 44.8627 43.58 44.5227 44.08C44.2027 44.6 43.9327 45.11 43.7127 45.61C43.4727 46.11 43.3527 46.56 43.3527 46.96C43.3527 47.8 43.7527 48.22 44.5527 48.22C44.8927 48.22 45.2927 48.12 45.7527 47.92C46.2127 47.74 46.7127 47.44 47.2527 47.02C48.6127 45.96 49.5727 44.78 50.1327 43.48C50.6927 42.2 50.9727 40.7 50.9727 38.98C50.9727 37.7 50.8527 36.28 50.6127 34.72C50.3927 33.12 50.2727 31.59 50.2527 30.13C50.1527 30.75 49.9827 31.5 49.7427 32.38C49.5227 33.24 49.2527 34.06 48.9327 34.84C48.6127 35.62 48.2527 36.29 47.8527 36.85C47.4727 37.41 46.9827 37.69 46.3827 37.69C45.9627 37.69 45.6027 37.48 45.3027 37.06C45.0227 36.64 44.8827 36 44.8827 35.14C44.8827 34.5 44.9927 33.74 45.2127 32.86C45.4327 31.98 45.7327 31.13 46.1127 30.31C46.4927 29.47 46.9127 28.78 47.3727 28.24C47.8527 27.68 48.3327 27.4 48.8127 27.4C49.1527 27.4 49.3927 27.54 49.5327 27.82C49.6927 28.08 49.7727 28.35 49.7727 28.63C49.7727 28.85 49.7327 29.04 49.6527 29.2C49.5727 29.36 49.4527 29.44 49.2927 29.44C49.1327 29.42 49.0127 29.35 48.9327 29.23C48.8727 29.09 48.8127 28.96 48.7527 28.84C48.6927 28.7 48.5827 28.63 48.4227 28.63C48.1027 28.63 47.7927 28.84 47.4927 29.26C47.2127 29.66 46.9527 30.19 46.7127 30.85C46.4927 31.49 46.3127 32.17 46.1727 32.89C46.0527 33.61 45.9927 34.27 45.9927 34.87C45.9927 35.43 46.0527 35.89 46.1727 36.25C46.3127 36.61 46.5227 36.8 46.8027 36.82C47.1427 36.84 47.4727 36.62 47.7927 36.16C48.1127 35.7 48.4027 35.11 48.6627 34.39C48.9427 33.67 49.1827 32.91 49.3827 32.11C49.6027 31.29 49.7827 30.53 49.9227 29.83C50.0827 29.11 50.1927 28.55 50.2527 28.15C50.4127 27.09 50.5627 26.42 50.7027 26.14C50.8427 25.84 50.9927 25.69 51.1527 25.69C51.2927 25.69 51.4127 25.82 51.5127 26.08C51.6327 26.34 51.6927 26.58 51.6927 26.8C51.6927 26.96 51.6827 27.07 51.6627 27.13C51.4227 28.45 51.3027 29.8 51.3027 31.18C51.3027 31.76 51.3227 32.34 51.3627 32.92C51.4027 33.48 51.4527 34.04 51.5127 34.6C51.6327 35.76 51.6927 36.84 51.6927 37.84C51.6927 39.88 51.4827 41.6 51.0627 43C50.6627 44.42 50.1327 45.56 49.4727 46.42C48.8127 47.3 48.1027 47.93 47.3427 48.31C46.6027 48.71 45.8827 48.91 45.1827 48.91Z" fill="black"/>
<path d="M14.9649 17.4082C14.9322 17.3716 14.8812 17.3499 14.8271 17.3496C14.7196 17.3506 14.6119 17.3674 14.5124 17.401C14.4889 17.409 14.4636 17.3931 14.4618 17.3684V17.3684C14.4584 17.3217 14.4291 17.2791 14.3824 17.2538C14.336 17.2282 14.2779 17.2231 14.2263 17.2398C14.1496 17.2644 14.0746 17.2925 14.0017 17.3238C13.9995 17.3248 13.9971 17.3235 13.9966 17.3211V17.3211C13.9823 17.2492 13.9389 17.0302 13.7259 17.0026C13.4988 16.9735 13.3159 17.1882 13.0665 17.5975C13.0583 17.6111 13.0403 17.6154 13.027 17.6065V17.6065C12.9046 17.5259 12.7505 17.4254 12.5715 17.4383V17.4383C12.3382 17.4545 12.0633 17.4585 11.8373 17.5187C11.8082 17.5265 11.7804 17.5372 11.7546 17.5508C11.7015 17.5787 11.6585 17.6139 11.6246 17.6538C11.5612 17.7286 11.4701 17.7876 11.3734 17.8041V17.8041C11.164 17.8396 11.0035 18.0024 11.0001 18.1829C10.9969 18.3502 11.1135 18.5048 11.3466 18.6423C11.746 18.8776 12.2309 19.0001 12.7157 19C12.985 19 13.2539 18.9623 13.5083 18.8851C14.2207 18.6691 14.7899 18.1522 14.9936 17.5362C15.0081 17.4921 14.9976 17.4448 14.9649 17.4082Z" fill="#A899DD"/>
<path d="M15.2027 17.4698C15.1697 17.4225 15.1146 17.3915 15.0538 17.3861C14.9932 17.3819 14.9281 17.3814 14.862 17.3883C14.8186 17.3927 14.7783 17.4103 14.7477 17.4383C13.6266 18.4578 12.2826 18.5446 11.3513 18.4379C11.2613 18.4272 11.1765 18.4746 11.1456 18.5515C11.1148 18.6286 11.1463 18.7155 11.2218 18.7621C11.6088 19.0007 12.0607 19.1438 12.519 19.1819C12.8216 19.2071 13.1268 19.1867 13.4183 19.1178C14.24 18.9234 14.9312 18.3523 15.2219 17.6271C15.2427 17.5752 15.2357 17.517 15.2027 17.4698Z" fill="#987AFF"/>
<path d="M53.9618 26.2561C53.8971 26.1832 53.7731 26.1412 53.6309 26.1227C53.5699 26.1148 53.5441 26.0246 53.5939 25.9884V25.9884C53.6381 25.9562 53.7724 25.8583 53.6731 25.7549C53.5926 25.6713 53.4051 25.6315 53.1571 25.6453C52.97 25.6558 52.7876 25.6795 52.6153 25.7146C52.3234 25.774 52.0113 25.5655 52.0129 25.2676V25.2676C52.0134 25.1932 51.9609 25.0872 51.8112 25.0332C51.721 25.0006 51.6117 24.9917 51.5048 25.0078C51.3275 25.0345 51.261 25.1165 51.2324 25.1515V25.1515C51.1504 25.2525 51.0027 25.2694 50.9001 25.1895L50.8358 25.1395C50.6714 25.0114 50.4911 24.9984 50.3699 25.0099C50.2611 25.0202 50.0737 25.0628 50.041 25.2323C49.9593 25.6599 49.9299 26.4341 50.6505 26.8155C50.9047 26.9501 51.228 27 51.5694 27C52.3476 27 53.2195 26.7407 53.5797 26.6335C53.9298 26.5294 54.0761 26.3847 53.9618 26.2561Z" fill="#A899DD"/>
<path d="M53.96 26.1629C53.8301 26.0057 53.4708 25.9765 53.1918 26.0156C53.1642 26.0194 53.1369 26.0238 53.1006 26.0299C52.0022 26.2389 51.0612 26.2836 50.3041 26.1625C50.2218 26.1493 50.1311 26.1609 50.0695 26.193C50.0079 26.2251 49.9851 26.2723 50.0098 26.3158C50.1235 26.5149 50.2855 26.6753 50.4914 26.7923C50.7577 26.9438 51.0964 27 51.454 27C52.2692 27 53.1826 26.7081 53.56 26.5876C53.9264 26.4705 54.0797 26.3077 53.96 26.1629Z" fill="#8B77D1"/>
</svg>
